<?xml version="1.0" standalone="no"?>
<!DOCTYPE svg PUBLIC "-//W3C//DTD SVG 20010904//EN"
 "http://www.w3.org/TR/2001/REC-SVG-20010904/DTD/svg10.dtd">
<svg version="1.0" xmlns="http://www.w3.org/2000/svg"
 width="240.000000pt" height="240.000000pt" viewBox="0 0 240.000000 240.000000"
 preserveAspectRatio="xMidYMid meet">
<metadata>
Created by potrace 1.14, written by Peter Selinger 2001-2017
</metadata>
<g transform="translate(0.000000,240.000000) scale(0.100000,-0.100000)"
fill="#000000" stroke="none">
<path d="M748 2183 c-36 -23 -48 -53 -48 -122 l0 -59 -88 -4 c-114 -5 -185
-37 -243 -110 -71 -91 -70 -76 -67 -809 l3 -654 29 -58 c19 -39 44 -71 78 -98
91 -71 76 -70 809 -67 l654 3 58 29 c66 34 110 79 141 145 21 45 21 56 21 726
l0 680 -23 43 c-32 59 -78 106 -137 138 -41 22 -67 28 -142 32 l-93 5 0 59 c0
68 -18 109 -55 126 -48 22 -95 10 -125 -32 -18 -25 -17 -22 -19 -96 l-1 -60
-300 0 -300 0 0 60 c0 71 -15 107 -51 126 -36 18 -68 17 -101 -3z m-48 -444
c0 -114 69 -170 150 -122 38 22 50 52 50 123 l0 60 300 0 300 0 0 -60 c0 -71
12 -101 50 -123 81 -48 150 8 150 122 l0 61 60 0 c127 0 140 -23 140 -240 l0
-160 -700 0 -700 0 0 160 c0 92 5 169 11 183 17 38 57 56 127 57 l62 0 0 -61z
m1200 -900 c0 -393 -1 -403 -57 -428 -16 -8 -220 -11 -644 -11 -561 0 -624 2
-649 17 -16 9 -33 27 -39 40 -7 16 -11 146 -11 383 l0 360 700 0 700 0 0 -361z"/>
<path d="M754 989 c-43 -22 -54 -59 -54 -188 0 -188 13 -201 199 -201 188 0
201 13 201 199 0 189 -13 201 -202 200 -67 0 -132 -5 -144 -10z"/>
</g>
</svg>
